<mxfile host="app.diagrams.net" agent="Mozilla/5.0 (Windows NT 10.0; Win64; x64) AppleWebKit/537.36 (KHTML, like Gecko) Chrome/129.0.0.0 Safari/537.36 Edg/129.0.0.0" version="24.7.17">
  <diagram id="0zgb8Ko6LvQEbP1bShlf" name="Seite-1">
    <mxGraphModel dx="1426" dy="789" grid="1" gridSize="10" guides="1" tooltips="1" connect="1" arrows="1" fold="1" page="1" pageScale="1" pageWidth="827" pageHeight="1169" math="0" shadow="0">
      <root>
        <mxCell id="0" />
        <mxCell id="1" parent="0" />
        <mxCell id="XjoLQwIz_804LhYPXiBZ-1" value="&quot;sometimes you can have data clumps that actually do not break any. Just because similar or the same data exists in different objects does not inherently constitute a problem&quot;&lt;div&gt;&lt;br&gt;&lt;/div&gt;&lt;div&gt;&lt;i&gt;Junit-Pioneer&lt;/i&gt;&lt;/div&gt;" style="rounded=1;whiteSpace=wrap;html=1;" vertex="1" parent="1">
          <mxGeometry x="110" y="60" width="430" height="80" as="geometry" />
        </mxCell>
        <mxCell id="XjoLQwIz_804LhYPXiBZ-2" value="&lt;div&gt;&quot;I looks much better now&quot;,&lt;/div&gt;&lt;div&gt;&amp;nbsp; &amp;nbsp; &amp;nbsp; &amp;nbsp; &amp;nbsp;And I have the impression it is really more readable, after your changes&quot;&lt;/div&gt;&lt;div&gt;&lt;br&gt;&lt;/div&gt;&lt;div&gt;&lt;i&gt;OpenPDF&lt;/i&gt;&lt;/div&gt;" style="rounded=1;whiteSpace=wrap;html=1;" vertex="1" parent="1">
          <mxGeometry x="120" y="190" width="410" height="130" as="geometry" />
        </mxCell>
        <mxCell id="XjoLQwIz_804LhYPXiBZ-3" value="&quot;... a comparison to IntelliJs feature &quot;Extract prameter object&quot; (https://www.jetbrains.com/help/idea/extract-into-class-refactorings.html#extract_parameter_object) is missing. I think, IntelliJ&#39;s algorithm might be better. Your thesis needs to include that as comparison! Maybe, an LLM can be used to identify places where to refactor and let IntelliJ do the work!&quot;&lt;div&gt;&lt;br&gt;&lt;/div&gt;&lt;div&gt;&lt;br&gt;&lt;/div&gt;&lt;div&gt;&lt;i&gt;Jabref&lt;/i&gt;&lt;/div&gt;" style="rounded=1;whiteSpace=wrap;html=1;" vertex="1" parent="1">
          <mxGeometry x="130" y="420" width="670" height="110" as="geometry" />
        </mxCell>
        <mxCell id="XjoLQwIz_804LhYPXiBZ-5" value="&quot;They may exist to represent real-word aspects, for example,&amp;nbsp; objects in the real world that may have similar properties - but need to be treated differently or that behave differently b) generated code that should not be edited by humans&quot;&lt;div&gt;&lt;br&gt;&lt;/div&gt;&lt;div&gt;&lt;br&gt;&lt;/div&gt;&lt;div&gt;&lt;i&gt;Karate&lt;/i&gt;&lt;/div&gt;" style="rounded=1;whiteSpace=wrap;html=1;" vertex="1" parent="1">
          <mxGeometry x="130" y="540" width="360" height="190" as="geometry" />
        </mxCell>
      </root>
    </mxGraphModel>
  </diagram>
</mxfile>
